<?xml version="1.0" encoding="utf-8" standalone="no"?>
<!DOCTYPE svg PUBLIC "-//W3C//DTD SVG 1.1//EN"
  "http://www.w3.org/Graphics/SVG/1.1/DTD/svg11.dtd">
<svg xmlns:xlink="http://www.w3.org/1999/xlink" width="539.771875pt" height="278.216594pt" viewBox="0 0 539.771875 278.216594" xmlns="http://www.w3.org/2000/svg" version="1.1">
 <metadata>
  <rdf:RDF xmlns:dc="http://purl.org/dc/elements/1.1/" xmlns:cc="http://creativecommons.org/ns#" xmlns:rdf="http://www.w3.org/1999/02/22-rdf-syntax-ns#">
   <cc:Work>
    <dc:type rdf:resource="http://purl.org/dc/dcmitype/StillImage"/>
    <dc:date>2026-09-15T14:07:51.418995</dc:date>
    <dc:format>image/svg+xml</dc:format>
    <dc:creator>
     <cc:Agent>
      <dc:title>Matplotlib v3.9.2, https://matplotlib.org/</dc:title>
     </cc:Agent>
    </dc:creator>
   </cc:Work>
  </rdf:RDF>
 </metadata>
 <defs>
  <style type="text/css">*{stroke-linejoin: round; stroke-linecap: butt}</style>
 </defs>
 <g id="figure_1">
  <g id="patch_1">
   <path d="M -0 278.216594 
L 539.771875 278.216594 
L 539.771875 0 
L -0 0 
z
" style="fill: #fbfaf7"/>
  </g>
  <g id="axes_1">
   <g id="patch_2">
    <path d="M 30.371875 254.313469 
L 532.571875 254.313469 
L 532.571875 21.465469 
L 30.371875 21.465469 
z
" style="fill: #fbfaf7"/>
   </g>
   <g id="matplotlib.axis_1">
    <g id="xtick_1">
     <g id="line2d_1">
      <path d="M 152.475081 254.313469 
L 152.475081 21.465469 
" clip-path="url(#p90273d65c1)" style="fill: none; stroke: #d9d6cf; stroke-width: 0.6; stroke-linecap: square"/>
     </g>
     <g id="line2d_2">
      <defs>
       <path id="ma5f65e9944" d="M 0 0 
L 0 3.5 
" style="stroke: #454a53; stroke-width: 0.8"/>
      </defs>
      <g>
       <use xlink:href="#ma5f65e9944" x="152.475081" y="254.313469" style="fill: #454a53; stroke: #454a53; stroke-width: 0.8"/>
      </g>
     </g>
     <g id="text_1">
      <!-- T1 duration parser -->
      <g style="fill: #454a53" transform="translate(112.040706 268.716594) scale(0.1 -0.1)">
       <defs>
        <path id="SegoeUI-54" d="M 3238 4006 
L 1944 4006 
L 1944 0 
L 1419 0 
L 1419 4006 
L 128 4006 
L 128 4481 
L 3238 4481 
L 3238 4006 
z
" transform="scale(0.015625)"/>
        <path id="SegoeUI-31" d="M 2263 0 
L 1750 0 
L 1750 3872 
Q 1691 3813 1577 3736 
Q 1463 3659 1320 3584 
Q 1178 3509 1020 3443 
Q 863 3378 713 3341 
L 713 3859 
Q 881 3906 1070 3986 
Q 1259 4066 1442 4164 
Q 1625 4263 1787 4370 
Q 1950 4478 2069 4581 
L 2263 4581 
L 2263 0 
z
" transform="scale(0.015625)"/>
        <path id="SegoeUI-20" transform="scale(0.015625)"/>
        <path id="SegoeUI-64" d="M 3250 0 
L 2738 0 
L 2738 544 
L 2725 544 
Q 2369 -75 1625 -75 
Q 1022 -75 661 354 
Q 300 784 300 1525 
Q 300 2319 700 2797 
Q 1100 3275 1766 3275 
Q 2425 3275 2725 2756 
L 2738 2756 
L 2738 4738 
L 3250 4738 
L 3250 0 
z
M 2738 1447 
L 2738 1919 
Q 2738 2306 2481 2575 
Q 2225 2844 1831 2844 
Q 1363 2844 1094 2500 
Q 825 2156 825 1550 
Q 825 997 1083 676 
Q 1341 356 1775 356 
Q 2203 356 2470 665 
Q 2738 975 2738 1447 
z
" transform="scale(0.015625)"/>
        <path id="SegoeUI-75" d="M 3106 0 
L 2594 0 
L 2594 506 
L 2581 506 
Q 2263 -75 1594 -75 
Q 450 -75 450 1288 
L 450 3200 
L 959 3200 
L 959 1369 
Q 959 356 1734 356 
Q 2109 356 2351 632 
Q 2594 909 2594 1356 
L 2594 3200 
L 3106 3200 
L 3106 0 
z
" transform="scale(0.015625)"/>
        <path id="SegoeUI-72" d="M 2188 2681 
Q 2053 2784 1800 2784 
Q 1472 2784 1251 2475 
Q 1031 2166 1031 1631 
L 1031 0 
L 519 0 
L 519 3200 
L 1031 3200 
L 1031 2541 
L 1044 2541 
Q 1153 2878 1378 3067 
Q 1603 3256 1881 3256 
Q 2081 3256 2188 3213 
L 2188 2681 
z
" transform="scale(0.015625)"/>
        <path id="SegoeUI-61" d="M 2809 0 
L 2297 0 
L 2297 500 
L 2284 500 
Q 1950 -75 1300 -75 
Q 822 -75 551 178 
Q 281 431 281 850 
Q 281 1747 1338 1894 
L 2297 2028 
Q 2297 2844 1638 2844 
Q 1059 2844 594 2450 
L 594 2975 
Q 1066 3275 1681 3275 
Q 2809 3275 2809 2081 
L 2809 0 
z
M 2297 1619 
L 1525 1513 
Q 1169 1463 987 1336 
Q 806 1209 806 888 
Q 806 653 973 504 
Q 1141 356 1419 356 
Q 1800 356 2048 623 
Q 2297 891 2297 1300 
L 2297 1619 
z
" transform="scale(0.015625)"/>
        <path id="SegoeUI-74" d="M 2003 31 
Q 1822 -69 1525 -69 
Q 684 -69 684 869 
L 684 2763 
L 134 2763 
L 134 3200 
L 684 3200 
L 684 3981 
L 1197 4147 
L 1197 3200 
L 2003 3200 
L 2003 2763 
L 1197 2763 
L 1197 959 
Q 1197 638 1306 500 
Q 1416 363 1669 363 
Q 1863 363 2003 469 
L 2003 31 
z
" transform="scale(0.015625)"/>
        <path id="SegoeUI-69" d="M 781 4013 
Q 644 4013 547 4106 
Q 450 4200 450 4344 
Q 450 4488 547 4583 
Q 644 4678 781 4678 
Q 922 4678 1020 4583 
Q 1119 4488 1119 4344 
Q 1119 4206 1020 4109 
Q 922 4013 781 4013 
z
M 1031 0 
L 519 0 
L 519 3200 
L 1031 3200 
L 1031 0 
z
" transform="scale(0.015625)"/>
        <path id="SegoeUI-6f" d="M 1856 -75 
Q 1147 -75 723 373 
Q 300 822 300 1563 
Q 300 2369 740 2822 
Q 1181 3275 1931 3275 
Q 2647 3275 3048 2834 
Q 3450 2394 3450 1613 
Q 3450 847 3017 386 
Q 2584 -75 1856 -75 
z
M 1894 2844 
Q 1400 2844 1112 2508 
Q 825 2172 825 1581 
Q 825 1013 1115 684 
Q 1406 356 1894 356 
Q 2391 356 2658 678 
Q 2925 1000 2925 1594 
Q 2925 2194 2658 2519 
Q 2391 2844 1894 2844 
z
" transform="scale(0.015625)"/>
        <path id="SegoeUI-6e" d="M 3175 0 
L 2663 0 
L 2663 1825 
Q 2663 2844 1919 2844 
Q 1534 2844 1282 2555 
Q 1031 2266 1031 1825 
L 1031 0 
L 519 0 
L 519 3200 
L 1031 3200 
L 1031 2669 
L 1044 2669 
Q 1406 3275 2094 3275 
Q 2619 3275 2897 2936 
Q 3175 2597 3175 1956 
L 3175 0 
z
" transform="scale(0.015625)"/>
        <path id="SegoeUI-70" d="M 1044 463 
L 1031 463 
L 1031 -1472 
L 519 -1472 
L 519 3200 
L 1031 3200 
L 1031 2638 
L 1044 2638 
Q 1422 3275 2150 3275 
Q 2769 3275 3116 2845 
Q 3463 2416 3463 1694 
Q 3463 891 3072 408 
Q 2681 -75 2003 -75 
Q 1381 -75 1044 463 
z
M 1031 1753 
L 1031 1306 
Q 1031 909 1289 632 
Q 1547 356 1944 356 
Q 2409 356 2673 712 
Q 2938 1069 2938 1703 
Q 2938 2238 2691 2541 
Q 2444 2844 2022 2844 
Q 1575 2844 1303 2533 
Q 1031 2222 1031 1753 
z
" transform="scale(0.015625)"/>
        <path id="SegoeUI-73" d="M 325 116 
L 325 666 
Q 744 356 1247 356 
Q 1922 356 1922 806 
Q 1922 934 1864 1023 
Q 1806 1113 1707 1181 
Q 1609 1250 1476 1304 
Q 1344 1359 1191 1419 
Q 978 1503 817 1589 
Q 656 1675 548 1783 
Q 441 1891 386 2028 
Q 331 2166 331 2350 
Q 331 2575 434 2748 
Q 538 2922 709 3039 
Q 881 3156 1101 3215 
Q 1322 3275 1556 3275 
Q 1972 3275 2300 3131 
L 2300 2613 
Q 1947 2844 1488 2844 
Q 1344 2844 1228 2811 
Q 1113 2778 1030 2718 
Q 947 2659 901 2576 
Q 856 2494 856 2394 
Q 856 2269 901 2184 
Q 947 2100 1034 2034 
Q 1122 1969 1247 1916 
Q 1372 1863 1531 1800 
Q 1744 1719 1912 1633 
Q 2081 1547 2200 1439 
Q 2319 1331 2383 1190 
Q 2447 1050 2447 856 
Q 2447 619 2342 444 
Q 2238 269 2063 153 
Q 1888 38 1659 -18 
Q 1431 -75 1181 -75 
Q 688 -75 325 116 
z
" transform="scale(0.015625)"/>
        <path id="SegoeUI-65" d="M 3091 1472 
L 831 1472 
Q 844 938 1119 647 
Q 1394 356 1875 356 
Q 2416 356 2869 713 
L 2869 231 
Q 2447 -75 1753 -75 
Q 1075 -75 687 361 
Q 300 797 300 1588 
Q 300 2334 723 2804 
Q 1147 3275 1775 3275 
Q 2403 3275 2747 2869 
Q 3091 2463 3091 1741 
L 3091 1472 
z
M 2566 1906 
Q 2563 2350 2352 2597 
Q 2141 2844 1766 2844 
Q 1403 2844 1150 2584 
Q 897 2325 838 1906 
L 2566 1906 
z
" transform="scale(0.015625)"/>
       </defs>
       <use xlink:href="#SegoeUI-54"/>
       <use xlink:href="#SegoeUI-31" x="52.392578"/>
       <use xlink:href="#SegoeUI-20" x="106.298828"/>
       <use xlink:href="#SegoeUI-64" x="133.691406"/>
       <use xlink:href="#SegoeUI-75" x="192.578125"/>
       <use xlink:href="#SegoeUI-72" x="249.169922"/>
       <use xlink:href="#SegoeUI-61" x="283.935547"/>
       <use xlink:href="#SegoeUI-74" x="334.814453"/>
       <use xlink:href="#SegoeUI-69" x="368.701172"/>
       <use xlink:href="#SegoeUI-6f" x="392.919922"/>
       <use xlink:href="#SegoeUI-6e" x="451.513672"/>
       <use xlink:href="#SegoeUI-20" x="508.105469"/>
       <use xlink:href="#SegoeUI-70" x="535.498047"/>
       <use xlink:href="#SegoeUI-61" x="592.912109"/>
       <use xlink:href="#SegoeUI-72" x="643.791016"/>
       <use xlink:href="#SegoeUI-73" x="679.181641"/>
       <use xlink:href="#SegoeUI-65" x="721.613281"/>
       <use xlink:href="#SegoeUI-72" x="773.908203"/>
      </g>
     </g>
    </g>
    <g id="xtick_2">
     <g id="line2d_3">
      <path d="M 410.468669 254.313469 
L 410.468669 21.465469 
" clip-path="url(#p90273d65c1)" style="fill: none; stroke: #d9d6cf; stroke-width: 0.6; stroke-linecap: square"/>
     </g>
     <g id="line2d_4">
      <g>
       <use xlink:href="#ma5f65e9944" x="410.468669" y="254.313469" style="fill: #454a53; stroke: #454a53; stroke-width: 0.8"/>
      </g>
     </g>
     <g id="text_2">
      <!-- T2 rate limiter (harder) -->
      <g style="fill: #454a53" transform="translate(361.183513 268.716594) scale(0.1 -0.1)">
       <defs>
        <path id="SegoeUI-32" d="M 2413 3306 
Q 2413 3513 2348 3666 
Q 2284 3819 2173 3920 
Q 2063 4022 1913 4072 
Q 1763 4122 1588 4122 
Q 1438 4122 1294 4081 
Q 1150 4041 1014 3969 
Q 878 3897 751 3797 
Q 625 3697 516 3575 
L 516 4125 
Q 731 4334 998 4445 
Q 1266 4556 1650 4556 
Q 1925 4556 2159 4476 
Q 2394 4397 2566 4244 
Q 2738 4091 2836 3866 
Q 2934 3641 2934 3350 
Q 2934 3084 2873 2868 
Q 2813 2653 2689 2462 
Q 2566 2272 2378 2097 
Q 2191 1922 1938 1741 
Q 1622 1516 1417 1356 
Q 1213 1197 1092 1058 
Q 972 919 923 780 
Q 875 641 875 459 
L 3106 459 
L 3106 0 
L 341 0 
L 341 222 
Q 341 509 403 728 
Q 466 947 609 1144 
Q 753 1341 986 1537 
Q 1219 1734 1556 1981 
Q 1800 2156 1964 2315 
Q 2128 2475 2228 2634 
Q 2328 2794 2370 2958 
Q 2413 3122 2413 3306 
z
" transform="scale(0.015625)"/>
        <path id="SegoeUI-6c" d="M 1031 0 
L 519 0 
L 519 4738 
L 1031 4738 
L 1031 0 
z
" transform="scale(0.015625)"/>
        <path id="SegoeUI-6d" d="M 5063 0 
L 4550 0 
L 4550 1838 
Q 4550 2369 4386 2606 
Q 4222 2844 3834 2844 
Q 3506 2844 3276 2544 
Q 3047 2244 3047 1825 
L 3047 0 
L 2534 0 
L 2534 1900 
Q 2534 2844 1806 2844 
Q 1469 2844 1250 2561 
Q 1031 2278 1031 1825 
L 1031 0 
L 519 0 
L 519 3200 
L 1031 3200 
L 1031 2694 
L 1044 2694 
Q 1384 3275 2038 3275 
Q 2366 3275 2609 3092 
Q 2853 2909 2944 2613 
Q 3300 3275 4006 3275 
Q 5063 3275 5063 1972 
L 5063 0 
z
" transform="scale(0.015625)"/>
        <path id="SegoeUI-28" d="M 1863 -1019 
L 1406 -1019 
Q 438 88 438 1709 
Q 438 3338 1406 4481 
L 1869 4481 
Q 888 3294 888 1716 
Q 888 150 1863 -1019 
z
" transform="scale(0.015625)"/>
        <path id="SegoeUI-68" d="M 3175 0 
L 2663 0 
L 2663 1844 
Q 2663 2844 1919 2844 
Q 1544 2844 1287 2555 
Q 1031 2266 1031 1813 
L 1031 0 
L 519 0 
L 519 4738 
L 1031 4738 
L 1031 2669 
L 1044 2669 
Q 1413 3275 2094 3275 
Q 3175 3275 3175 1972 
L 3175 0 
z
" transform="scale(0.015625)"/>
        <path id="SegoeUI-29" d="M 531 -1019 
L 75 -1019 
Q 1050 150 1050 1716 
Q 1050 3294 69 4481 
L 531 4481 
Q 1506 3338 1506 1709 
Q 1506 88 531 -1019 
z
" transform="scale(0.015625)"/>
       </defs>
       <use xlink:href="#SegoeUI-54"/>
       <use xlink:href="#SegoeUI-32" x="52.392578"/>
       <use xlink:href="#SegoeUI-20" x="106.298828"/>
       <use xlink:href="#SegoeUI-72" x="133.691406"/>
       <use xlink:href="#SegoeUI-61" x="168.457031"/>
       <use xlink:href="#SegoeUI-74" x="219.335938"/>
       <use xlink:href="#SegoeUI-65" x="252.472656"/>
       <use xlink:href="#SegoeUI-20" x="304.767578"/>
       <use xlink:href="#SegoeUI-6c" x="332.160156"/>
       <use xlink:href="#SegoeUI-69" x="356.378906"/>
       <use xlink:href="#SegoeUI-6d" x="380.597656"/>
       <use xlink:href="#SegoeUI-69" x="466.730469"/>
       <use xlink:href="#SegoeUI-74" x="490.949219"/>
       <use xlink:href="#SegoeUI-65" x="524.085938"/>
       <use xlink:href="#SegoeUI-72" x="576.380859"/>
       <use xlink:href="#SegoeUI-20" x="611.146484"/>
       <use xlink:href="#SegoeUI-28" x="638.539062"/>
       <use xlink:href="#SegoeUI-68" x="668.714844"/>
       <use xlink:href="#SegoeUI-61" x="725.306641"/>
       <use xlink:href="#SegoeUI-72" x="776.185547"/>
       <use xlink:href="#SegoeUI-64" x="809.576172"/>
       <use xlink:href="#SegoeUI-65" x="868.462891"/>
       <use xlink:href="#SegoeUI-72" x="920.757812"/>
       <use xlink:href="#SegoeUI-29" x="955.523438"/>
      </g>
     </g>
    </g>
   </g>
   <g id="matplotlib.axis_2">
    <g id="ytick_1">
     <g id="line2d_5">
      <path d="M 30.371875 254.313469 
L 532.571875 254.313469 
" clip-path="url(#p90273d65c1)" style="fill: none; stroke: #d9d6cf; stroke-width: 0.6; stroke-linecap: square"/>
     </g>
     <g id="line2d_6">
      <defs>
       <path id="m73fa8c666d" d="M 0 0 
L -3.5 0 
" style="stroke: #454a53; stroke-width: 0.8"/>
      </defs>
      <g>
       <use xlink:href="#m73fa8c666d" x="30.371875" y="254.313469" style="fill: #454a53; stroke: #454a53; stroke-width: 0.8"/>
      </g>
     </g>
     <g id="text_3">
      <!-- 0 -->
      <g style="fill: #454a53" transform="translate(17.98125 258.015031) scale(0.1 -0.1)">
       <defs>
        <path id="SegoeUI-30" d="M 3188 2259 
Q 3188 1697 3086 1262 
Q 2984 828 2792 529 
Q 2600 231 2320 76 
Q 2041 -78 1684 -78 
Q 1347 -78 1083 70 
Q 819 219 637 503 
Q 456 788 362 1202 
Q 269 1616 269 2150 
Q 269 2738 367 3188 
Q 466 3638 656 3942 
Q 847 4247 1130 4401 
Q 1413 4556 1778 4556 
Q 3188 4556 3188 2259 
z
M 2663 2209 
Q 2663 4122 1753 4122 
Q 794 4122 794 2175 
Q 794 359 1734 359 
Q 2663 359 2663 2209 
z
" transform="scale(0.015625)"/>
       </defs>
       <use xlink:href="#SegoeUI-30"/>
      </g>
     </g>
    </g>
    <g id="ytick_2">
     <g id="line2d_7">
      <path d="M 30.371875 219.472935 
L 532.571875 219.472935 
" clip-path="url(#p90273d65c1)" style="fill: none; stroke: #d9d6cf; stroke-width: 0.6; stroke-linecap: square"/>
     </g>
     <g id="line2d_8">
      <g>
       <use xlink:href="#m73fa8c666d" x="30.371875" y="219.472935" style="fill: #454a53; stroke: #454a53; stroke-width: 0.8"/>
      </g>
     </g>
     <g id="text_4">
      <!-- 20 -->
      <g style="fill: #454a53" transform="translate(12.590625 223.174497) scale(0.1 -0.1)">
       <use xlink:href="#SegoeUI-32"/>
       <use xlink:href="#SegoeUI-30" x="53.90625"/>
      </g>
     </g>
    </g>
    <g id="ytick_3">
     <g id="line2d_9">
      <path d="M 30.371875 184.6324 
L 532.571875 184.6324 
" clip-path="url(#p90273d65c1)" style="fill: none; stroke: #d9d6cf; stroke-width: 0.6; stroke-linecap: square"/>
     </g>
     <g id="line2d_10">
      <g>
       <use xlink:href="#m73fa8c666d" x="30.371875" y="184.6324" style="fill: #454a53; stroke: #454a53; stroke-width: 0.8"/>
      </g>
     </g>
     <g id="text_5">
      <!-- 40 -->
      <g style="fill: #454a53" transform="translate(12.590625 188.333963) scale(0.1 -0.1)">
       <defs>
        <path id="SegoeUI-34" d="M 2656 4481 
L 2656 1522 
L 3231 1522 
L 3231 1053 
L 2656 1053 
L 2656 0 
L 2150 0 
L 2150 1053 
L 44 1053 
L 44 1497 
Q 338 1828 638 2204 
Q 938 2581 1211 2968 
Q 1484 3356 1717 3742 
Q 1950 4128 2109 4481 
L 2656 4481 
z
M 622 1522 
L 2150 1522 
L 2150 3716 
Q 1916 3306 1706 2984 
Q 1497 2663 1308 2400 
Q 1119 2138 947 1925 
Q 775 1713 622 1522 
z
" transform="scale(0.015625)"/>
       </defs>
       <use xlink:href="#SegoeUI-34"/>
       <use xlink:href="#SegoeUI-30" x="53.90625"/>
      </g>
     </g>
    </g>
    <g id="ytick_4">
     <g id="line2d_11">
      <path d="M 30.371875 149.791866 
L 532.571875 149.791866 
" clip-path="url(#p90273d65c1)" style="fill: none; stroke: #d9d6cf; stroke-width: 0.6; stroke-linecap: square"/>
     </g>
     <g id="line2d_12">
      <g>
       <use xlink:href="#m73fa8c666d" x="30.371875" y="149.791866" style="fill: #454a53; stroke: #454a53; stroke-width: 0.8"/>
      </g>
     </g>
     <g id="text_6">
      <!-- 60 -->
      <g style="fill: #454a53" transform="translate(12.590625 153.493429) scale(0.1 -0.1)">
       <defs>
        <path id="SegoeUI-36" d="M 3194 1422 
Q 3194 1094 3087 819 
Q 2981 544 2793 344 
Q 2606 144 2347 33 
Q 2088 -78 1784 -78 
Q 1447 -78 1180 62 
Q 913 203 727 467 
Q 541 731 444 1112 
Q 347 1494 347 1972 
Q 347 2556 476 3032 
Q 606 3509 845 3848 
Q 1084 4188 1421 4372 
Q 1759 4556 2175 4556 
Q 2638 4556 2919 4428 
L 2919 3944 
Q 2572 4122 2188 4122 
Q 1888 4122 1647 3987 
Q 1406 3853 1234 3608 
Q 1063 3363 970 3016 
Q 878 2669 878 2244 
L 891 2244 
Q 1200 2803 1913 2803 
Q 2206 2803 2442 2703 
Q 2678 2603 2845 2420 
Q 3013 2238 3103 1984 
Q 3194 1731 3194 1422 
z
M 2669 1356 
Q 2669 1591 2609 1778 
Q 2550 1966 2439 2097 
Q 2328 2228 2165 2298 
Q 2003 2369 1797 2369 
Q 1606 2369 1443 2297 
Q 1281 2225 1162 2101 
Q 1044 1978 976 1814 
Q 909 1650 909 1466 
Q 909 1234 975 1032 
Q 1041 831 1159 681 
Q 1278 531 1442 445 
Q 1606 359 1806 359 
Q 2000 359 2159 432 
Q 2319 506 2431 637 
Q 2544 769 2606 951 
Q 2669 1134 2669 1356 
z
" transform="scale(0.015625)"/>
       </defs>
       <use xlink:href="#SegoeUI-36"/>
       <use xlink:href="#SegoeUI-30" x="53.90625"/>
      </g>
     </g>
    </g>
    <g id="ytick_5">
     <g id="line2d_13">
      <path d="M 30.371875 114.951332 
L 532.571875 114.951332 
" clip-path="url(#p90273d65c1)" style="fill: none; stroke: #d9d6cf; stroke-width: 0.6; stroke-linecap: square"/>
     </g>
     <g id="line2d_14">
      <g>
       <use xlink:href="#m73fa8c666d" x="30.371875" y="114.951332" style="fill: #454a53; stroke: #454a53; stroke-width: 0.8"/>
      </g>
     </g>
     <g id="text_7">
      <!-- 80 -->
      <g style="fill: #454a53" transform="translate(12.590625 118.652895) scale(0.1 -0.1)">
       <defs>
        <path id="SegoeUI-38" d="M 281 1250 
Q 281 1428 337 1608 
Q 394 1788 498 1944 
Q 603 2100 758 2228 
Q 913 2356 1109 2431 
Q 819 2594 647 2848 
Q 475 3103 475 3413 
Q 475 3659 570 3868 
Q 666 4078 834 4231 
Q 1003 4384 1234 4470 
Q 1466 4556 1734 4556 
Q 2006 4556 2237 4468 
Q 2469 4381 2637 4228 
Q 2806 4075 2900 3865 
Q 2994 3656 2994 3413 
Q 2994 3103 2822 2848 
Q 2650 2594 2366 2431 
Q 2559 2356 2712 2228 
Q 2866 2100 2970 1944 
Q 3075 1788 3131 1608 
Q 3188 1428 3188 1250 
Q 3188 956 3081 712 
Q 2975 469 2783 295 
Q 2591 122 2323 25 
Q 2056 -72 1734 -72 
Q 1416 -72 1150 25 
Q 884 122 690 295 
Q 497 469 389 712 
Q 281 956 281 1250 
z
M 838 1294 
Q 838 1084 902 915 
Q 966 747 1083 628 
Q 1200 509 1367 445 
Q 1534 381 1738 381 
Q 1934 381 2100 447 
Q 2266 513 2386 631 
Q 2506 750 2573 919 
Q 2641 1088 2641 1294 
Q 2641 1481 2577 1645 
Q 2513 1809 2394 1934 
Q 2275 2059 2109 2131 
Q 1944 2203 1738 2203 
Q 1544 2203 1380 2136 
Q 1216 2069 1095 1948 
Q 975 1828 906 1661 
Q 838 1494 838 1294 
z
M 997 3372 
Q 997 3213 1055 3077 
Q 1113 2941 1214 2839 
Q 1316 2738 1450 2680 
Q 1584 2622 1738 2622 
Q 1891 2622 2027 2681 
Q 2163 2741 2263 2842 
Q 2363 2944 2422 3080 
Q 2481 3216 2481 3372 
Q 2481 3534 2423 3671 
Q 2366 3809 2266 3909 
Q 2166 4009 2030 4067 
Q 1894 4125 1738 4125 
Q 1572 4125 1436 4065 
Q 1300 4006 1201 3904 
Q 1103 3803 1050 3665 
Q 997 3528 997 3372 
z
" transform="scale(0.015625)"/>
       </defs>
       <use xlink:href="#SegoeUI-38"/>
       <use xlink:href="#SegoeUI-30" x="53.90625"/>
      </g>
     </g>
    </g>
    <g id="ytick_6">
     <g id="line2d_15">
      <path d="M 30.371875 80.110798 
L 532.571875 80.110798 
" clip-path="url(#p90273d65c1)" style="fill: none; stroke: #d9d6cf; stroke-width: 0.6; stroke-linecap: square"/>
     </g>
     <g id="line2d_16">
      <g>
       <use xlink:href="#m73fa8c666d" x="30.371875" y="80.110798" style="fill: #454a53; stroke: #454a53; stroke-width: 0.8"/>
      </g>
     </g>
     <g id="text_8">
      <!-- 100 -->
      <g style="fill: #454a53" transform="translate(7.2 83.81236) scale(0.1 -0.1)">
       <use xlink:href="#SegoeUI-31"/>
       <use xlink:href="#SegoeUI-30" x="53.90625"/>
       <use xlink:href="#SegoeUI-30" x="107.8125"/>
      </g>
     </g>
    </g>
    <g id="ytick_7">
     <g id="line2d_17">
      <path d="M 30.371875 45.270264 
L 532.571875 45.270264 
" clip-path="url(#p90273d65c1)" style="fill: none; stroke: #d9d6cf; stroke-width: 0.6; stroke-linecap: square"/>
     </g>
     <g id="line2d_18">
      <g>
       <use xlink:href="#m73fa8c666d" x="30.371875" y="45.270264" style="fill: #454a53; stroke: #454a53; stroke-width: 0.8"/>
      </g>
     </g>
     <g id="text_9">
      <!-- 120 -->
      <g style="fill: #454a53" transform="translate(7.2 48.971826) scale(0.1 -0.1)">
       <use xlink:href="#SegoeUI-31"/>
       <use xlink:href="#SegoeUI-32" x="53.90625"/>
       <use xlink:href="#SegoeUI-30" x="107.8125"/>
      </g>
     </g>
    </g>
   </g>
   <g id="patch_3">
    <path d="M 53.199148 254.313469 
L 84.055181 254.313469 
L 84.055181 130.977978 
L 53.199148 130.977978 
z
" clip-path="url(#p90273d65c1)" style="fill: #3b3f46"/>
   </g>
   <g id="patch_4">
    <path d="M 311.192736 254.313469 
L 342.04877 254.313469 
L 342.04877 140.90753 
L 311.192736 140.90753 
z
" clip-path="url(#p90273d65c1)" style="fill: #3b3f46"/>
   </g>
   <g id="patch_5">
    <path d="M 86.738314 254.313469 
L 117.594347 254.313469 
L 117.594347 138.120287 
L 86.738314 138.120287 
z
" clip-path="url(#p90273d65c1)" style="fill: #c44e16"/>
   </g>
   <g id="patch_6">
    <path d="M 344.731903 254.313469 
L 375.587936 254.313469 
L 375.587936 98.576281 
L 344.731903 98.576281 
z
" clip-path="url(#p90273d65c1)" style="fill: #c44e16"/>
   </g>
   <g id="patch_7">
    <path d="M 120.277481 254.313469 
L 151.133514 254.313469 
L 151.133514 168.257349 
L 120.277481 168.257349 
z
" clip-path="url(#p90273d65c1)" style="fill: #e39a6f"/>
   </g>
   <g id="patch_8">
    <path d="M 378.271069 254.313469 
L 409.127103 254.313469 
L 409.127103 121.048426 
L 378.271069 121.048426 
z
" clip-path="url(#p90273d65c1)" style="fill: #e39a6f"/>
   </g>
   <g id="patch_9">
    <path d="M 153.816647 254.313469 
L 184.672681 254.313469 
L 184.672681 118.261183 
L 153.816647 118.261183 
z
" clip-path="url(#p90273d65c1)" style="fill: #8a3f1e"/>
   </g>
   <g id="patch_10">
    <path d="M 411.810236 254.313469 
L 442.666269 254.313469 
L 442.666269 67.045598 
L 411.810236 67.045598 
z
" clip-path="url(#p90273d65c1)" style="fill: #8a3f1e"/>
   </g>
   <g id="patch_11">
    <path d="M 187.355814 254.313469 
L 218.211847 254.313469 
L 218.211847 181.148347 
L 187.355814 181.148347 
z
" clip-path="url(#p90273d65c1)" style="fill: #4f7a8a"/>
   </g>
   <g id="patch_12">
    <path d="M 445.349403 254.313469 
L 476.205436 254.313469 
L 476.205436 155.88896 
L 445.349403 155.88896 
z
" clip-path="url(#p90273d65c1)" style="fill: #4f7a8a"/>
   </g>
   <g id="patch_13">
    <path d="M 220.89498 254.313469 
L 251.751014 254.313469 
L 251.751014 184.283995 
L 220.89498 184.283995 
z
" clip-path="url(#p90273d65c1)" style="fill: #8f8a4b"/>
   </g>
   <g id="patch_14">
    <path d="M 478.888569 254.313469 
L 509.744602 254.313469 
L 509.744602 162.334459 
L 478.888569 162.334459 
z
" clip-path="url(#p90273d65c1)" style="fill: #8f8a4b"/>
   </g>
   <g id="LineCollection_1">
    <path d="M 68.627164 153.450122 
L 68.627164 69.83284 
" clip-path="url(#p90273d65c1)" style="fill: none; stroke: #6b717b; stroke-width: 0.8"/>
    <path d="M 326.620753 155.366352 
L 326.620753 76.278339 
" clip-path="url(#p90273d65c1)" style="fill: none; stroke: #6b717b; stroke-width: 0.8"/>
   </g>
   <g id="line2d_19">
    <defs>
     <path id="m02277ccc48" d="M 2 0 
L -2 -0 
" style="stroke: #6b717b"/>
    </defs>
    <g clip-path="url(#p90273d65c1)">
     <use xlink:href="#m02277ccc48" x="68.627164" y="153.450122" style="fill: #6b717b; stroke: #6b717b"/>
     <use xlink:href="#m02277ccc48" x="326.620753" y="155.366352" style="fill: #6b717b; stroke: #6b717b"/>
    </g>
   </g>
   <g id="line2d_20">
    <g clip-path="url(#p90273d65c1)">
     <use xlink:href="#m02277ccc48" x="68.627164" y="69.83284" style="fill: #6b717b; stroke: #6b717b"/>
     <use xlink:href="#m02277ccc48" x="326.620753" y="76.278339" style="fill: #6b717b; stroke: #6b717b"/>
    </g>
   </g>
   <g id="LineCollection_2">
    <path d="M 102.166331 169.128363 
L 102.166331 78.368771 
" clip-path="url(#p90273d65c1)" style="fill: none; stroke: #6b717b; stroke-width: 0.8"/>
    <path d="M 360.15992 145.436799 
L 360.15992 32.553469 
" clip-path="url(#p90273d65c1)" style="fill: none; stroke: #6b717b; stroke-width: 0.8"/>
   </g>
   <g id="line2d_21">
    <g clip-path="url(#p90273d65c1)">
     <use xlink:href="#m02277ccc48" x="102.166331" y="169.128363" style="fill: #6b717b; stroke: #6b717b"/>
     <use xlink:href="#m02277ccc48" x="360.15992" y="145.436799" style="fill: #6b717b; stroke: #6b717b"/>
    </g>
   </g>
   <g id="line2d_22">
    <g clip-path="url(#p90273d65c1)">
     <use xlink:href="#m02277ccc48" x="102.166331" y="78.368771" style="fill: #6b717b; stroke: #6b717b"/>
     <use xlink:href="#m02277ccc48" x="360.15992" y="32.553469" style="fill: #6b717b; stroke: #6b717b"/>
    </g>
   </g>
   <g id="LineCollection_3">
    <path d="M 135.705497 184.458198 
L 135.705497 165.121701 
" clip-path="url(#p90273d65c1)" style="fill: none; stroke: #6b717b; stroke-width: 0.8"/>
    <path d="M 393.699086 169.476768 
L 393.699086 111.118873 
" clip-path="url(#p90273d65c1)" style="fill: none; stroke: #6b717b; stroke-width: 0.8"/>
   </g>
   <g id="line2d_23">
    <g clip-path="url(#p90273d65c1)">
     <use xlink:href="#m02277ccc48" x="135.705497" y="184.458198" style="fill: #6b717b; stroke: #6b717b"/>
     <use xlink:href="#m02277ccc48" x="393.699086" y="169.476768" style="fill: #6b717b; stroke: #6b717b"/>
    </g>
   </g>
   <g id="line2d_24">
    <g clip-path="url(#p90273d65c1)">
     <use xlink:href="#m02277ccc48" x="135.705497" y="165.121701" style="fill: #6b717b; stroke: #6b717b"/>
     <use xlink:href="#m02277ccc48" x="393.699086" y="111.118873" style="fill: #6b717b; stroke: #6b717b"/>
    </g>
   </g>
   <g id="LineCollection_4">
    <path d="M 169.244664 148.224042 
L 169.244664 82.723838 
" clip-path="url(#p90273d65c1)" style="fill: none; stroke: #6b717b; stroke-width: 0.8"/>
    <path d="M 427.238253 124.706682 
L 427.238253 39.869981 
" clip-path="url(#p90273d65c1)" style="fill: none; stroke: #6b717b; stroke-width: 0.8"/>
   </g>
   <g id="line2d_25">
    <g clip-path="url(#p90273d65c1)">
     <use xlink:href="#m02277ccc48" x="169.244664" y="148.224042" style="fill: #6b717b; stroke: #6b717b"/>
     <use xlink:href="#m02277ccc48" x="427.238253" y="124.706682" style="fill: #6b717b; stroke: #6b717b"/>
    </g>
   </g>
   <g id="line2d_26">
    <g clip-path="url(#p90273d65c1)">
     <use xlink:href="#m02277ccc48" x="169.244664" y="82.723838" style="fill: #6b717b; stroke: #6b717b"/>
     <use xlink:href="#m02277ccc48" x="427.238253" y="39.869981" style="fill: #6b717b; stroke: #6b717b"/>
    </g>
   </g>
   <g id="LineCollection_5">
    <path d="M 202.78383 203.968897 
L 202.78383 154.146933 
" clip-path="url(#p90273d65c1)" style="fill: none; stroke: #6b717b; stroke-width: 0.8"/>
    <path d="M 460.777419 176.79328 
L 460.777419 151.011285 
" clip-path="url(#p90273d65c1)" style="fill: none; stroke: #6b717b; stroke-width: 0.8"/>
   </g>
   <g id="line2d_27">
    <g clip-path="url(#p90273d65c1)">
     <use xlink:href="#m02277ccc48" x="202.78383" y="203.968897" style="fill: #6b717b; stroke: #6b717b"/>
     <use xlink:href="#m02277ccc48" x="460.777419" y="176.79328" style="fill: #6b717b; stroke: #6b717b"/>
    </g>
   </g>
   <g id="line2d_28">
    <g clip-path="url(#p90273d65c1)">
     <use xlink:href="#m02277ccc48" x="202.78383" y="154.146933" style="fill: #6b717b; stroke: #6b717b"/>
     <use xlink:href="#m02277ccc48" x="460.777419" y="151.011285" style="fill: #6b717b; stroke: #6b717b"/>
    </g>
   </g>
   <g id="LineCollection_6">
    <path d="M 236.322997 196.826587 
L 236.322997 157.805189 
" clip-path="url(#p90273d65c1)" style="fill: none; stroke: #6b717b; stroke-width: 0.8"/>
    <path d="M 494.316586 175.922267 
L 494.316586 116.170751 
" clip-path="url(#p90273d65c1)" style="fill: none; stroke: #6b717b; stroke-width: 0.8"/>
   </g>
   <g id="line2d_29">
    <g clip-path="url(#p90273d65c1)">
     <use xlink:href="#m02277ccc48" x="236.322997" y="196.826587" style="fill: #6b717b; stroke: #6b717b"/>
     <use xlink:href="#m02277ccc48" x="494.316586" y="175.922267" style="fill: #6b717b; stroke: #6b717b"/>
    </g>
   </g>
   <g id="line2d_30">
    <g clip-path="url(#p90273d65c1)">
     <use xlink:href="#m02277ccc48" x="236.322997" y="157.805189" style="fill: #6b717b; stroke: #6b717b"/>
     <use xlink:href="#m02277ccc48" x="494.316586" y="116.170751" style="fill: #6b717b; stroke: #6b717b"/>
    </g>
   </g>
   <g id="patch_15">
    <path d="M 30.371875 254.313469 
L 30.371875 21.465469 
" style="fill: none; stroke: #b9b5ad; stroke-width: 0.8; stroke-linejoin: miter; stroke-linecap: square"/>
   </g>
   <g id="patch_16">
    <path d="M 30.371875 254.313469 
L 532.571875 254.313469 
" style="fill: none; stroke: #b9b5ad; stroke-width: 0.8; stroke-linejoin: miter; stroke-linecap: square"/>
   </g>
   <g id="text_10">
    <!-- Time per answer (seconds) (median; whiskers show the range of five runs) -->
    <g style="fill: #121316" transform="translate(30.371875 15.465469) scale(0.11 -0.11)">
     <defs>
      <path id="SegoeUI-Semibold-54" d="M 3428 3850 
L 2141 3850 
L 2141 0 
L 1397 0 
L 1397 3850 
L 113 3850 
L 113 4481 
L 3428 4481 
L 3428 3850 
z
" transform="scale(0.015625)"/>
      <path id="SegoeUI-Semibold-69" d="M 838 3872 
Q 659 3872 532 3987 
Q 406 4103 406 4281 
Q 406 4459 532 4578 
Q 659 4697 838 4697 
Q 1022 4697 1150 4578 
Q 1278 4459 1278 4281 
Q 1278 4113 1150 3992 
Q 1022 3872 838 3872 
z
M 1197 0 
L 472 0 
L 472 3200 
L 1197 3200 
L 1197 0 
z
" transform="scale(0.015625)"/>
      <path id="SegoeUI-Semibold-6d" d="M 5256 0 
L 4531 0 
L 4531 1744 
Q 4531 2247 4389 2472 
Q 4247 2697 3909 2697 
Q 3625 2697 3426 2412 
Q 3228 2128 3228 1731 
L 3228 0 
L 2500 0 
L 2500 1803 
Q 2500 2697 1869 2697 
Q 1575 2697 1386 2428 
Q 1197 2159 1197 1731 
L 1197 0 
L 472 0 
L 472 3200 
L 1197 3200 
L 1197 2694 
L 1209 2694 
Q 1556 3275 2219 3275 
Q 2550 3275 2798 3092 
Q 3047 2909 3138 2613 
Q 3494 3275 4200 3275 
Q 5256 3275 5256 1972 
L 5256 0 
z
" transform="scale(0.015625)"/>
      <path id="SegoeUI-Semibold-65" d="M 3181 1403 
L 1000 1403 
Q 1013 959 1273 718 
Q 1534 478 1991 478 
Q 2503 478 2931 784 
L 2931 200 
Q 2494 -75 1775 -75 
Q 1069 -75 667 361 
Q 266 797 266 1588 
Q 266 2334 708 2804 
Q 1150 3275 1806 3275 
Q 2463 3275 2822 2853 
Q 3181 2431 3181 1681 
L 3181 1403 
z
M 2481 1916 
Q 2478 2306 2297 2523 
Q 2116 2741 1797 2741 
Q 1484 2741 1267 2512 
Q 1050 2284 1000 1916 
L 2481 1916 
z
" transform="scale(0.015625)"/>
      <path id="SegoeUI-Semibold-20" transform="scale(0.015625)"/>
      <path id="SegoeUI-Semibold-70" d="M 1209 472 
L 1197 472 
L 1197 -1472 
L 472 -1472 
L 472 3200 
L 1197 3200 
L 1197 2638 
L 1209 2638 
Q 1581 3275 2297 3275 
Q 2906 3275 3247 2847 
Q 3588 2419 3588 1697 
Q 3588 897 3203 415 
Q 2819 -66 2153 -66 
Q 1541 -66 1209 472 
z
M 1191 1734 
L 1191 1338 
Q 1191 988 1414 744 
Q 1638 500 1981 500 
Q 2384 500 2614 814 
Q 2844 1128 2844 1691 
Q 2844 2163 2630 2430 
Q 2416 2697 2050 2697 
Q 1663 2697 1427 2422 
Q 1191 2147 1191 1734 
z
" transform="scale(0.015625)"/>
      <path id="SegoeUI-Semibold-72" d="M 2328 2509 
Q 2197 2613 1950 2613 
Q 1628 2613 1412 2322 
Q 1197 2031 1197 1531 
L 1197 0 
L 472 0 
L 472 3200 
L 1197 3200 
L 1197 2541 
L 1209 2541 
Q 1316 2878 1536 3067 
Q 1756 3256 2028 3256 
Q 2225 3256 2328 3197 
L 2328 2509 
z
" transform="scale(0.015625)"/>
      <path id="SegoeUI-Semibold-61" d="M 2928 0 
L 2225 0 
L 2225 500 
L 2213 500 
Q 1881 -75 1241 -75 
Q 769 -75 501 181 
Q 234 438 234 859 
Q 234 1766 1278 1916 
L 2228 2050 
Q 2228 2734 1578 2734 
Q 1006 2734 547 2341 
L 547 2975 
Q 1053 3275 1716 3275 
Q 2928 3275 2928 2081 
L 2928 0 
z
M 2228 1572 
L 1556 1478 
Q 1244 1438 1086 1327 
Q 928 1216 928 938 
Q 928 734 1073 604 
Q 1219 475 1463 475 
Q 1794 475 2011 708 
Q 2228 941 2228 1294 
L 2228 1572 
z
" transform="scale(0.015625)"/>
      <path id="SegoeUI-Semibold-6e" d="M 3322 0 
L 2597 0 
L 2597 1803 
Q 2597 2700 1963 2700 
Q 1631 2700 1415 2451 
Q 1200 2203 1200 1825 
L 1200 0 
L 472 0 
L 472 3200 
L 1200 3200 
L 1200 2669 
L 1213 2669 
Q 1572 3275 2250 3275 
Q 2772 3275 3047 2936 
Q 3322 2597 3322 1956 
L 3322 0 
z
" transform="scale(0.015625)"/>
      <path id="SegoeUI-Semibold-73" d="M 272 100 
L 272 772 
Q 678 463 1169 463 
Q 1825 463 1825 850 
Q 1825 959 1769 1036 
Q 1713 1113 1617 1172 
Q 1522 1231 1392 1278 
Q 1263 1325 1103 1384 
Q 906 1463 748 1550 
Q 591 1638 486 1748 
Q 381 1859 328 2000 
Q 275 2141 275 2328 
Q 275 2559 384 2736 
Q 494 2913 678 3033 
Q 863 3153 1097 3214 
Q 1331 3275 1581 3275 
Q 2025 3275 2375 3141 
L 2375 2506 
Q 2038 2738 1600 2738 
Q 1463 2738 1352 2709 
Q 1241 2681 1162 2631 
Q 1084 2581 1040 2511 
Q 997 2441 997 2356 
Q 997 2253 1040 2181 
Q 1084 2109 1170 2054 
Q 1256 2000 1376 1954 
Q 1497 1909 1653 1856 
Q 1859 1772 2023 1684 
Q 2188 1597 2303 1486 
Q 2419 1375 2481 1229 
Q 2544 1084 2544 884 
Q 2544 641 2431 459 
Q 2319 278 2131 159 
Q 1944 41 1698 -17 
Q 1453 -75 1181 -75 
Q 656 -75 272 100 
z
" transform="scale(0.015625)"/>
      <path id="SegoeUI-Semibold-77" d="M 4775 3200 
L 3831 0 
L 3072 0 
L 2491 2169 
Q 2456 2294 2447 2450 
L 2434 2450 
Q 2428 2344 2378 2175 
L 1747 0 
L 1003 0 
L 63 3200 
L 813 3200 
L 1394 894 
Q 1422 791 1431 619 
L 1453 619 
Q 1463 750 1503 900 
L 2150 3200 
L 2831 3200 
L 3406 884 
Q 3434 775 3447 609 
L 3469 609 
Q 3475 725 3516 884 
L 4084 3200 
L 4775 3200 
z
" transform="scale(0.015625)"/>
      <path id="SegoeUI-Semibold-28" d="M 2063 -1019 
L 1450 -1019 
Q 463 88 463 1709 
Q 463 3338 1450 4481 
L 2066 4481 
Q 1097 3294 1097 1716 
Q 1097 150 2063 -1019 
z
" transform="scale(0.015625)"/>
      <path id="SegoeUI-Semibold-63" d="M 2763 147 
Q 2378 -75 1853 -75 
Q 1141 -75 703 370 
Q 266 816 266 1525 
Q 266 2316 736 2795 
Q 1206 3275 1994 3275 
Q 2431 3275 2766 3122 
L 2766 2447 
Q 2431 2697 2053 2697 
Q 1594 2697 1300 2386 
Q 1006 2075 1006 1572 
Q 1006 1075 1282 787 
Q 1559 500 2025 500 
Q 2416 500 2763 778 
L 2763 147 
z
" transform="scale(0.015625)"/>
      <path id="SegoeUI-Semibold-6f" d="M 1891 -75 
Q 1150 -75 708 373 
Q 266 822 266 1563 
Q 266 2369 727 2822 
Q 1188 3275 1969 3275 
Q 2719 3275 3137 2834 
Q 3556 2394 3556 1613 
Q 3556 847 3104 386 
Q 2653 -75 1891 -75 
z
M 1925 2697 
Q 1500 2697 1253 2400 
Q 1006 2103 1006 1581 
Q 1006 1078 1256 789 
Q 1506 500 1925 500 
Q 2353 500 2583 784 
Q 2813 1069 2813 1594 
Q 2813 2122 2583 2409 
Q 2353 2697 1925 2697 
z
" transform="scale(0.015625)"/>
      <path id="SegoeUI-Semibold-64" d="M 3381 0 
L 2656 0 
L 2656 544 
L 2644 544 
Q 2294 -75 1566 -75 
Q 975 -75 620 354 
Q 266 784 266 1525 
Q 266 2319 658 2797 
Q 1050 3275 1703 3275 
Q 2350 3275 2644 2756 
L 2656 2756 
L 2656 4738 
L 3381 4738 
L 3381 0 
z
M 2666 1463 
L 2666 1881 
Q 2666 2222 2444 2459 
Q 2222 2697 1878 2697 
Q 1472 2697 1239 2394 
Q 1006 2091 1006 1553 
Q 1006 1066 1229 783 
Q 1453 500 1831 500 
Q 2203 500 2434 773 
Q 2666 1047 2666 1463 
z
" transform="scale(0.015625)"/>
      <path id="SegoeUI-Semibold-29" d="M 678 -1019 
L 66 -1019 
Q 1034 150 1034 1716 
Q 1034 3294 63 4481 
L 681 4481 
Q 1672 3338 1672 1709 
Q 1672 88 678 -1019 
z
" transform="scale(0.015625)"/>
      <path id="SegoeUI-Semibold-3b" d="M 772 2409 
Q 588 2409 461 2536 
Q 334 2663 334 2838 
Q 334 3013 461 3134 
Q 588 3256 772 3256 
Q 950 3256 1078 3134 
Q 1206 3013 1206 2838 
Q 1206 2663 1078 2536 
Q 950 2409 772 2409 
z
M 1150 747 
L 675 -825 
L 122 -825 
L 463 747 
L 1150 747 
z
" transform="scale(0.015625)"/>
      <path id="SegoeUI-Semibold-68" d="M 3316 0 
L 2591 0 
L 2591 1750 
Q 2591 2700 1956 2700 
Q 1638 2700 1419 2425 
Q 1200 2150 1200 1722 
L 1200 0 
L 472 0 
L 472 4738 
L 1200 4738 
L 1200 2669 
L 1213 2669 
Q 1575 3275 2250 3275 
Q 3316 3275 3316 1972 
L 3316 0 
z
" transform="scale(0.015625)"/>
      <path id="SegoeUI-Semibold-6b" d="M 3375 0 
L 2456 0 
L 1213 1538 
L 1200 1538 
L 1200 0 
L 472 0 
L 472 4738 
L 1200 4738 
L 1200 1734 
L 1213 1734 
L 2388 3200 
L 3259 3200 
L 1938 1656 
L 3375 0 
z
" transform="scale(0.015625)"/>
      <path id="SegoeUI-Semibold-74" d="M 2159 34 
Q 1947 -72 1600 -72 
Q 669 -72 669 822 
L 669 2631 
L 134 2631 
L 134 3200 
L 669 3200 
L 669 3941 
L 1394 4147 
L 1394 3200 
L 2159 3200 
L 2159 2631 
L 1394 2631 
L 1394 1031 
Q 1394 747 1497 625 
Q 1600 503 1841 503 
Q 2025 503 2159 609 
L 2159 34 
z
" transform="scale(0.015625)"/>
      <path id="SegoeUI-Semibold-67" d="M 3384 256 
Q 3384 -1506 1613 -1506 
Q 988 -1506 522 -1297 
L 522 -634 
Q 1047 -934 1519 -934 
Q 2659 -934 2659 188 
L 2659 538 
L 2647 538 
Q 2288 -75 1566 -75 
Q 981 -75 623 351 
Q 266 778 266 1497 
Q 266 2313 650 2794 
Q 1034 3275 1706 3275 
Q 2341 3275 2647 2756 
L 2659 2756 
L 2659 3200 
L 3384 3200 
L 3384 256 
z
M 2666 1466 
L 2666 1881 
Q 2666 2219 2442 2458 
Q 2219 2697 1884 2697 
Q 1472 2697 1239 2392 
Q 1006 2088 1006 1541 
Q 1006 1069 1229 786 
Q 1453 503 1822 503 
Q 2197 503 2431 773 
Q 2666 1044 2666 1466 
z
" transform="scale(0.015625)"/>
      <path id="SegoeUI-Semibold-66" d="M 2281 4147 
Q 2134 4231 1947 4231 
Q 1419 4231 1419 3634 
L 1419 3200 
L 2163 3200 
L 2163 2631 
L 1422 2631 
L 1422 0 
L 697 0 
L 697 2631 
L 150 2631 
L 150 3200 
L 697 3200 
L 697 3719 
Q 697 4225 1028 4517 
Q 1359 4809 1856 4809 
Q 2125 4809 2281 4750 
L 2281 4147 
z
" transform="scale(0.015625)"/>
      <path id="SegoeUI-Semibold-76" d="M 3228 3200 
L 1991 0 
L 1206 0 
L 28 3200 
L 816 3200 
L 1525 963 
Q 1606 716 1625 531 
L 1634 531 
Q 1663 763 1722 950 
L 2466 3200 
L 3228 3200 
z
" transform="scale(0.015625)"/>
      <path id="SegoeUI-Semibold-75" d="M 3263 0 
L 2538 0 
L 2538 506 
L 2525 506 
Q 2209 -75 1544 -75 
Q 409 -75 409 1288 
L 409 3200 
L 1134 3200 
L 1134 1363 
Q 1134 500 1800 500 
Q 2122 500 2330 737 
Q 2538 975 2538 1359 
L 2538 3200 
L 3263 3200 
L 3263 0 
z
" transform="scale(0.015625)"/>
     </defs>
     <use xlink:href="#SegoeUI-Semibold-54"/>
     <use xlink:href="#SegoeUI-Semibold-69" x="55.175781"/>
     <use xlink:href="#SegoeUI-Semibold-6d" x="81.298828"/>
     <use xlink:href="#SegoeUI-Semibold-65" x="169.873047"/>
     <use xlink:href="#SegoeUI-Semibold-20" x="222.998047"/>
     <use xlink:href="#SegoeUI-Semibold-70" x="250.488281"/>
     <use xlink:href="#SegoeUI-Semibold-65" x="310.742188"/>
     <use xlink:href="#SegoeUI-Semibold-72" x="363.867188"/>
     <use xlink:href="#SegoeUI-Semibold-20" x="400.878906"/>
     <use xlink:href="#SegoeUI-Semibold-61" x="428.369141"/>
     <use xlink:href="#SegoeUI-Semibold-6e" x="480.566406"/>
     <use xlink:href="#SegoeUI-Semibold-73" x="538.916016"/>
     <use xlink:href="#SegoeUI-Semibold-77" x="582.03125"/>
     <use xlink:href="#SegoeUI-Semibold-65" x="657.166016"/>
     <use xlink:href="#SegoeUI-Semibold-72" x="710.291016"/>
     <use xlink:href="#SegoeUI-Semibold-20" x="747.302734"/>
     <use xlink:href="#SegoeUI-Semibold-28" x="774.792969"/>
     <use xlink:href="#SegoeUI-Semibold-73" x="807.996094"/>
     <use xlink:href="#SegoeUI-Semibold-65" x="851.111328"/>
     <use xlink:href="#SegoeUI-Semibold-63" x="904.236328"/>
     <use xlink:href="#SegoeUI-Semibold-6f" x="951.257812"/>
     <use xlink:href="#SegoeUI-Semibold-6e" x="1010.974609"/>
     <use xlink:href="#SegoeUI-Semibold-64" x="1069.324219"/>
     <use xlink:href="#SegoeUI-Semibold-73" x="1129.578125"/>
     <use xlink:href="#SegoeUI-Semibold-29" x="1172.693359"/>
     <use xlink:href="#SegoeUI-Semibold-20" x="1205.896484"/>
     <use xlink:href="#SegoeUI-Semibold-28" x="1233.386719"/>
     <use xlink:href="#SegoeUI-Semibold-6d" x="1266.589844"/>
     <use xlink:href="#SegoeUI-Semibold-65" x="1355.164062"/>
     <use xlink:href="#SegoeUI-Semibold-64" x="1408.289062"/>
     <use xlink:href="#SegoeUI-Semibold-69" x="1468.542969"/>
     <use xlink:href="#SegoeUI-Semibold-61" x="1494.666016"/>
     <use xlink:href="#SegoeUI-Semibold-6e" x="1546.863281"/>
     <use xlink:href="#SegoeUI-Semibold-3b" x="1605.212891"/>
     <use xlink:href="#SegoeUI-Semibold-20" x="1629.333984"/>
     <use xlink:href="#SegoeUI-Semibold-77" x="1656.824219"/>
     <use xlink:href="#SegoeUI-Semibold-68" x="1732.458984"/>
     <use xlink:href="#SegoeUI-Semibold-69" x="1790.662109"/>
     <use xlink:href="#SegoeUI-Semibold-73" x="1816.785156"/>
     <use xlink:href="#SegoeUI-Semibold-6b" x="1859.900391"/>
     <use xlink:href="#SegoeUI-Semibold-65" x="1910.640625"/>
     <use xlink:href="#SegoeUI-Semibold-72" x="1963.765625"/>
     <use xlink:href="#SegoeUI-Semibold-73" x="2001.402344"/>
     <use xlink:href="#SegoeUI-Semibold-20" x="2044.517578"/>
     <use xlink:href="#SegoeUI-Semibold-73" x="2072.007812"/>
     <use xlink:href="#SegoeUI-Semibold-68" x="2115.123047"/>
     <use xlink:href="#SegoeUI-Semibold-6f" x="2173.326172"/>
     <use xlink:href="#SegoeUI-Semibold-77" x="2233.042969"/>
     <use xlink:href="#SegoeUI-Semibold-20" x="2308.677734"/>
     <use xlink:href="#SegoeUI-Semibold-74" x="2336.167969"/>
     <use xlink:href="#SegoeUI-Semibold-68" x="2372.300781"/>
     <use xlink:href="#SegoeUI-Semibold-65" x="2430.503906"/>
     <use xlink:href="#SegoeUI-Semibold-20" x="2483.628906"/>
     <use xlink:href="#SegoeUI-Semibold-72" x="2511.119141"/>
     <use xlink:href="#SegoeUI-Semibold-61" x="2548.130859"/>
     <use xlink:href="#SegoeUI-Semibold-6e" x="2600.328125"/>
     <use xlink:href="#SegoeUI-Semibold-67" x="2658.677734"/>
     <use xlink:href="#SegoeUI-Semibold-65" x="2718.931641"/>
     <use xlink:href="#SegoeUI-Semibold-20" x="2772.056641"/>
     <use xlink:href="#SegoeUI-Semibold-6f" x="2799.546875"/>
     <use xlink:href="#SegoeUI-Semibold-66" x="2857.638672"/>
     <use xlink:href="#SegoeUI-Semibold-20" x="2892.111328"/>
     <use xlink:href="#SegoeUI-Semibold-66" x="2919.601562"/>
     <use xlink:href="#SegoeUI-Semibold-69" x="2954.074219"/>
     <use xlink:href="#SegoeUI-Semibold-76" x="2980.197266"/>
     <use xlink:href="#SegoeUI-Semibold-65" x="3030.179688"/>
     <use xlink:href="#SegoeUI-Semibold-20" x="3083.304688"/>
     <use xlink:href="#SegoeUI-Semibold-72" x="3110.794922"/>
     <use xlink:href="#SegoeUI-Semibold-75" x="3147.806641"/>
     <use xlink:href="#SegoeUI-Semibold-6e" x="3206.15625"/>
     <use xlink:href="#SegoeUI-Semibold-73" x="3264.505859"/>
     <use xlink:href="#SegoeUI-Semibold-29" x="3307.621094"/>
    </g>
   </g>
   <g id="legend_1">
    <g id="patch_17">
     <path d="M 37.571875 34.587969 
L 53.571875 34.587969 
L 53.571875 28.987969 
L 37.571875 28.987969 
z
" style="fill: #3b3f46"/>
    </g>
    <g id="text_11">
     <!-- No harness -->
     <g transform="translate(59.971875 34.587969) scale(0.08 -0.08)">
      <defs>
       <path id="SegoeUI-4e" d="M 4200 0 
L 3556 0 
L 1250 3572 
Q 1163 3706 1106 3853 
L 1088 3853 
Q 1113 3709 1113 3238 
L 1113 0 
L 588 0 
L 588 4481 
L 1269 4481 
L 3513 966 
Q 3653 747 3694 666 
L 3706 666 
Q 3675 859 3675 1325 
L 3675 4481 
L 4200 4481 
L 4200 0 
z
" transform="scale(0.015625)"/>
      </defs>
      <use xlink:href="#SegoeUI-4e"/>
      <use xlink:href="#SegoeUI-6f" x="74.804688"/>
      <use xlink:href="#SegoeUI-20" x="133.398438"/>
      <use xlink:href="#SegoeUI-68" x="160.791016"/>
      <use xlink:href="#SegoeUI-61" x="217.382812"/>
      <use xlink:href="#SegoeUI-72" x="268.261719"/>
      <use xlink:href="#SegoeUI-6e" x="302.777344"/>
      <use xlink:href="#SegoeUI-65" x="359.369141"/>
      <use xlink:href="#SegoeUI-73" x="411.664062"/>
      <use xlink:href="#SegoeUI-73" x="454.095703"/>
     </g>
    </g>
    <g id="patch_18">
     <path d="M 37.571875 46.350469 
L 53.571875 46.350469 
L 53.571875 40.750469 
L 37.571875 40.750469 
z
" style="fill: #c44e16"/>
    </g>
    <g id="text_12">
     <!-- Super harness -->
     <g transform="translate(59.971875 46.350469) scale(0.08 -0.08)">
      <defs>
       <path id="SegoeUI-53" d="M 378 181 
L 378 800 
Q 484 706 632 631 
Q 781 556 945 504 
Q 1109 453 1275 425 
Q 1441 397 1581 397 
Q 2066 397 2305 576 
Q 2544 756 2544 1094 
Q 2544 1275 2464 1409 
Q 2384 1544 2243 1655 
Q 2103 1766 1911 1867 
Q 1719 1969 1497 2081 
Q 1263 2200 1059 2322 
Q 856 2444 706 2591 
Q 556 2738 470 2923 
Q 384 3109 384 3359 
Q 384 3666 518 3892 
Q 653 4119 872 4266 
Q 1091 4413 1370 4484 
Q 1650 4556 1941 4556 
Q 2603 4556 2906 4397 
L 2906 3806 
Q 2509 4081 1888 4081 
Q 1716 4081 1544 4045 
Q 1372 4009 1237 3928 
Q 1103 3847 1018 3719 
Q 934 3591 934 3406 
Q 934 3234 998 3109 
Q 1063 2984 1188 2881 
Q 1313 2778 1492 2681 
Q 1672 2584 1906 2469 
Q 2147 2350 2362 2219 
Q 2578 2088 2740 1928 
Q 2903 1769 2998 1575 
Q 3094 1381 3094 1131 
Q 3094 800 2964 570 
Q 2834 341 2614 197 
Q 2394 53 2106 -11 
Q 1819 -75 1500 -75 
Q 1394 -75 1237 -58 
Q 1081 -41 918 -8 
Q 756 25 611 73 
Q 466 122 378 181 
z
" transform="scale(0.015625)"/>
      </defs>
      <use xlink:href="#SegoeUI-53"/>
      <use xlink:href="#SegoeUI-75" x="53.125"/>
      <use xlink:href="#SegoeUI-70" x="109.716797"/>
      <use xlink:href="#SegoeUI-65" x="168.505859"/>
      <use xlink:href="#SegoeUI-72" x="220.800781"/>
      <use xlink:href="#SegoeUI-20" x="255.566406"/>
      <use xlink:href="#SegoeUI-68" x="282.958984"/>
      <use xlink:href="#SegoeUI-61" x="339.550781"/>
      <use xlink:href="#SegoeUI-72" x="390.429688"/>
      <use xlink:href="#SegoeUI-6e" x="424.945312"/>
      <use xlink:href="#SegoeUI-65" x="481.537109"/>
      <use xlink:href="#SegoeUI-73" x="533.832031"/>
      <use xlink:href="#SegoeUI-73" x="576.263672"/>
     </g>
    </g>
    <g id="patch_19">
     <path d="M 125.469375 34.587969 
L 141.469375 34.587969 
L 141.469375 28.987969 
L 125.469375 28.987969 
z
" style="fill: #e39a6f"/>
    </g>
    <g id="text_13">
     <!-- Super + ponytail + caveman -->
     <g transform="translate(147.869375 34.587969) scale(0.08 -0.08)">
      <defs>
       <path id="SegoeUI-2b" d="M 3663 1656 
L 2400 1656 
L 2400 397 
L 1984 397 
L 1984 1656 
L 725 1656 
L 725 2075 
L 1984 2075 
L 1984 3334 
L 2400 3334 
L 2400 2075 
L 3663 2075 
L 3663 1656 
z
" transform="scale(0.015625)"/>
       <path id="SegoeUI-79" d="M 3066 3200 
L 1594 -513 
Q 1200 -1506 488 -1506 
Q 288 -1506 153 -1466 
L 153 -1006 
Q 319 -1063 456 -1063 
Q 844 -1063 1038 -600 
L 1294 6 
L 44 3200 
L 613 3200 
L 1478 738 
Q 1494 691 1544 494 
L 1563 494 
Q 1578 569 1625 731 
L 2534 3200 
L 3066 3200 
z
" transform="scale(0.015625)"/>
       <path id="SegoeUI-63" d="M 2700 147 
Q 2331 -75 1825 -75 
Q 1141 -75 720 370 
Q 300 816 300 1525 
Q 300 2316 753 2795 
Q 1206 3275 1963 3275 
Q 2384 3275 2706 3119 
L 2706 2594 
Q 2350 2844 1944 2844 
Q 1453 2844 1139 2492 
Q 825 2141 825 1569 
Q 825 1006 1120 681 
Q 1416 356 1913 356 
Q 2331 356 2700 634 
L 2700 147 
z
" transform="scale(0.015625)"/>
       <path id="SegoeUI-76" d="M 3034 3200 
L 1759 0 
L 1256 0 
L 44 3200 
L 606 3200 
L 1419 875 
Q 1509 619 1531 428 
L 1544 428 
Q 1575 669 1644 863 
L 2494 3200 
L 3034 3200 
z
" transform="scale(0.015625)"/>
      </defs>
      <use xlink:href="#SegoeUI-53"/>
      <use xlink:href="#SegoeUI-75" x="53.125"/>
      <use xlink:href="#SegoeUI-70" x="109.716797"/>
      <use xlink:href="#SegoeUI-65" x="168.505859"/>
      <use xlink:href="#SegoeUI-72" x="220.800781"/>
      <use xlink:href="#SegoeUI-20" x="255.566406"/>
      <use xlink:href="#SegoeUI-2b" x="282.958984"/>
      <use xlink:href="#SegoeUI-20" x="351.367188"/>
      <use xlink:href="#SegoeUI-70" x="378.759766"/>
      <use xlink:href="#SegoeUI-6f" x="437.548828"/>
      <use xlink:href="#SegoeUI-6e" x="496.142578"/>
      <use xlink:href="#SegoeUI-79" x="552.734375"/>
      <use xlink:href="#SegoeUI-74" x="601.373047"/>
      <use xlink:href="#SegoeUI-61" x="635.259766"/>
      <use xlink:href="#SegoeUI-69" x="686.138672"/>
      <use xlink:href="#SegoeUI-6c" x="710.357422"/>
      <use xlink:href="#SegoeUI-20" x="734.576172"/>
      <use xlink:href="#SegoeUI-2b" x="761.96875"/>
      <use xlink:href="#SegoeUI-20" x="830.376953"/>
      <use xlink:href="#SegoeUI-63" x="857.769531"/>
      <use xlink:href="#SegoeUI-61" x="903.960938"/>
      <use xlink:href="#SegoeUI-76" x="954.839844"/>
      <use xlink:href="#SegoeUI-65" x="1002.115234"/>
      <use xlink:href="#SegoeUI-6d" x="1054.410156"/>
      <use xlink:href="#SegoeUI-61" x="1140.542969"/>
      <use xlink:href="#SegoeUI-6e" x="1191.421875"/>
     </g>
    </g>
    <g id="patch_20">
     <path d="M 125.469375 46.392969 
L 141.469375 46.392969 
L 141.469375 40.792969 
L 125.469375 40.792969 
z
" style="fill: #8a3f1e"/>
    </g>
    <g id="text_14">
     <!-- Super + ponytail no caveman -->
     <g transform="translate(147.869375 46.392969) scale(0.08 -0.08)">
      <use xlink:href="#SegoeUI-53"/>
      <use xlink:href="#SegoeUI-75" x="53.125"/>
      <use xlink:href="#SegoeUI-70" x="109.716797"/>
      <use xlink:href="#SegoeUI-65" x="168.505859"/>
      <use xlink:href="#SegoeUI-72" x="220.800781"/>
      <use xlink:href="#SegoeUI-20" x="255.566406"/>
      <use xlink:href="#SegoeUI-2b" x="282.958984"/>
      <use xlink:href="#SegoeUI-20" x="351.367188"/>
      <use xlink:href="#SegoeUI-70" x="378.759766"/>
      <use xlink:href="#SegoeUI-6f" x="437.548828"/>
      <use xlink:href="#SegoeUI-6e" x="496.142578"/>
      <use xlink:href="#SegoeUI-79" x="552.734375"/>
      <use xlink:href="#SegoeUI-74" x="601.373047"/>
      <use xlink:href="#SegoeUI-61" x="635.259766"/>
      <use xlink:href="#SegoeUI-69" x="686.138672"/>
      <use xlink:href="#SegoeUI-6c" x="710.357422"/>
      <use xlink:href="#SegoeUI-20" x="734.576172"/>
      <use xlink:href="#SegoeUI-6e" x="761.96875"/>
      <use xlink:href="#SegoeUI-6f" x="818.560547"/>
      <use xlink:href="#SegoeUI-20" x="877.154297"/>
      <use xlink:href="#SegoeUI-63" x="904.546875"/>
      <use xlink:href="#SegoeUI-61" x="950.738281"/>
      <use xlink:href="#SegoeUI-76" x="1001.617188"/>
      <use xlink:href="#SegoeUI-65" x="1048.892578"/>
      <use xlink:href="#SegoeUI-6d" x="1101.1875"/>
      <use xlink:href="#SegoeUI-61" x="1187.320312"/>
      <use xlink:href="#SegoeUI-6e" x="1238.199219"/>
     </g>
    </g>
    <g id="patch_21">
     <path d="M 267.454375 34.587969 
L 283.454375 34.587969 
L 283.454375 28.987969 
L 267.454375 28.987969 
z
" style="fill: #4f7a8a"/>
    </g>
    <g id="text_15">
     <!-- Ponytail -->
     <g transform="translate(289.854375 34.587969) scale(0.08 -0.08)">
      <defs>
       <path id="SegoeUI-50" d="M 1113 1694 
L 1113 0 
L 588 0 
L 588 4481 
L 1819 4481 
Q 2538 4481 2933 4131 
Q 3328 3781 3328 3144 
Q 3328 2506 2889 2100 
Q 2450 1694 1703 1694 
L 1113 1694 
z
M 1113 4006 
L 1113 2169 
L 1663 2169 
Q 2206 2169 2492 2417 
Q 2778 2666 2778 3119 
Q 2778 4006 1728 4006 
L 1113 4006 
z
" transform="scale(0.015625)"/>
      </defs>
      <use xlink:href="#SegoeUI-50"/>
      <use xlink:href="#SegoeUI-6f" x="52.255859"/>
      <use xlink:href="#SegoeUI-6e" x="110.849609"/>
      <use xlink:href="#SegoeUI-79" x="167.441406"/>
      <use xlink:href="#SegoeUI-74" x="216.080078"/>
      <use xlink:href="#SegoeUI-61" x="249.966797"/>
      <use xlink:href="#SegoeUI-69" x="300.845703"/>
      <use xlink:href="#SegoeUI-6c" x="325.064453"/>
     </g>
    </g>
    <g id="patch_22">
     <path d="M 267.454375 46.392969 
L 283.454375 46.392969 
L 283.454375 40.792969 
L 267.454375 40.792969 
z
" style="fill: #8f8a4b"/>
    </g>
    <g id="text_16">
     <!-- Caveman -->
     <g transform="translate(289.854375 46.392969) scale(0.08 -0.08)">
      <defs>
       <path id="SegoeUI-43" d="M 3638 188 
Q 3141 -75 2400 -75 
Q 1444 -75 869 540 
Q 294 1156 294 2156 
Q 294 3231 941 3893 
Q 1588 4556 2581 4556 
Q 3219 4556 3638 4372 
L 3638 3813 
Q 3156 4081 2575 4081 
Q 1803 4081 1323 3565 
Q 844 3050 844 2188 
Q 844 1369 1292 883 
Q 1741 397 2469 397 
Q 3144 397 3638 697 
L 3638 188 
z
" transform="scale(0.015625)"/>
      </defs>
      <use xlink:href="#SegoeUI-43"/>
      <use xlink:href="#SegoeUI-61" x="61.914062"/>
      <use xlink:href="#SegoeUI-76" x="112.792969"/>
      <use xlink:href="#SegoeUI-65" x="160.068359"/>
      <use xlink:href="#SegoeUI-6d" x="212.363281"/>
      <use xlink:href="#SegoeUI-61" x="298.496094"/>
      <use xlink:href="#SegoeUI-6e" x="349.375"/>
     </g>
    </g>
   </g>
  </g>
 </g>
 <defs>
  <clipPath id="p90273d65c1">
   <rect x="30.371875" y="21.465469" width="502.2" height="232.848"/>
  </clipPath>
 </defs>
</svg>
